HIERARCHY
ROOT Hips
{
	OFFSET -3.958830 18.904000 13.208200
	CHANNELS 6 Xposition Yposition Zposition Zrotation Yrotation Xrotation 
	JOINT LHipJoint
	{
		OFFSET 0.000000 0.000000 0.000000
		CHANNELS 3 Zrotation Yrotation Xrotation
		JOINT LeftUpLeg
		{
			OFFSET 1.800000 -1.400000 0.085000
			CHANNELS 3 Zrotation Yrotation Xrotation
			JOINT LeftLeg
			{
				OFFSET 2.215000 -6.000000 0.000000
				CHANNELS 3 Zrotation Yrotation Xrotation
				JOINT LeftFoot
				{
					OFFSET 2.500000 -6.900000 0.000000
					CHANNELS 3 Zrotation Yrotation Xrotation
					JOINT LeftToeBase
					{
						OFFSET 0.200000 -0.500000 1.950000
						CHANNELS 3 Zrotation Yrotation Xrotation
						End Site
						{
							OFFSET 0.000000 0.000000 0.000000
						}
					}
				}
			}
		}
	}
	JOINT RHipJoint
	{
		OFFSET 0.000000 0.000000 0.000000
		CHANNELS 3 Zrotation Yrotation Xrotation
		JOINT RightUpLeg
		{
			OFFSET -1.800000 -1.400000 0.085000
			CHANNELS 3 Zrotation Yrotation Xrotation
			JOINT RightLeg
			{
				OFFSET -2.215000 -6.000000 0.000000
				CHANNELS 3 Zrotation Yrotation Xrotation
				JOINT RightFoot
				{
					OFFSET -2.500000 -6.900000 0.000000
					CHANNELS 3 Zrotation Yrotation Xrotation
					JOINT RightToeBase
					{
						OFFSET -0.200000 -0.500000 1.950000
						CHANNELS 3 Zrotation Yrotation Xrotation
						End Site
						{
							OFFSET 0.000000 0.000000 0.000000
						}
					}
				}
			}
		}
	}
	JOINT LowerBack
	{
		OFFSET 0.000000 0.000000 0.000000
		CHANNELS 3 Zrotation Yrotation Xrotation
		JOINT Spine
		{
			OFFSET -0.087000 1.940000 -0.288900
			CHANNELS 3 Zrotation Yrotation Xrotation
			JOINT Spine1
			{
				OFFSET 0.000000 1.950000 0.060000
				CHANNELS 3 Zrotation Yrotation Xrotation
				JOINT Neck
				{
					OFFSET 0.000000 0.000000 0.000000
					CHANNELS 3 Zrotation Yrotation Xrotation
					JOINT Neck1
					{
						OFFSET 0.000000 1.600000 0.340000
						CHANNELS 3 Zrotation Yrotation Xrotation
						JOINT Head
						{
							OFFSET 0.000000 1.667000 -0.240000
							CHANNELS 3 Zrotation Yrotation Xrotation
							End Site
							{
								OFFSET 0.000000 0.000000 0.000000
							}
						}
					}
				}
				JOINT LeftShoulder
				{
					OFFSET 0.000000 0.000000 0.000000
					CHANNELS 3 Zrotation Yrotation Xrotation
					JOINT LeftArm
					{
						OFFSET 2.700000 1.550000 -0.730000
						CHANNELS 3 Zrotation Yrotation Xrotation
						JOINT LeftForeArm
						{
							OFFSET 5.450000 0.000000 0.000000
							CHANNELS 3 Zrotation Yrotation Xrotation
							JOINT LeftHand
							{
								OFFSET 3.450000 0.000000 0.000000
								CHANNELS 3 Zrotation Yrotation Xrotation
								JOINT LeftHandIndex1
								{
									OFFSET 0.750000 0.000000 0.000000
									CHANNELS 3 Zrotation Yrotation Xrotation
									End Site
									{
										OFFSET 0.000000 0.000000 0.000000
									}
								}
							}
						}
					}
				}
				JOINT RightShoulder
				{
					OFFSET 0.000000 0.000000 0.000000
					CHANNELS 3 Zrotation Yrotation Xrotation
					JOINT RightArm
					{
						OFFSET -2.700000 1.550000 -0.730000
						CHANNELS 3 Zrotation Yrotation Xrotation
						JOINT RightForeArm
						{
							OFFSET -5.450000 0.000000 0.000000
							CHANNELS 3 Zrotation Yrotation Xrotation
							JOINT RightHand
							{
								OFFSET -3.450000 0.000000 0.000000
								CHANNELS 3 Zrotation Yrotation Xrotation
								JOINT RightHandIndex1
								{
									OFFSET -0.750000 0.000000 0.000000
									CHANNELS 3 Zrotation Yrotation Xrotation
									End Site
									{
										OFFSET 0.000000 0.000000 0.000000
									}
								}
							}
						}
					}
				}
			}
		}
	}
}
MOTION
Frames: 13
Frame Time: 0.016667
-1.952880 17.896220 -0.984780 -45.959436 -87.317762 47.912369 -15.007744 13.343995 3.072043 2.407460 -1.611276 -13.979036 -7.712177 5.056647 8.698236 -0.318159 3.606393 3.515776 0.088650 0.031770 -0.166630 18.378458 -10.752320 2.815526 -3.811349 1.557238 -16.845570 9.363801 -5.143967 13.065924 0.157695 -3.495160 3.250151 0.081240 0.736700 0.152030 -3.703109 -1.712233 -7.013973 10.087568 -0.904694 5.388001 -4.497796 -0.028648 10.641795 0.840577 -2.987469 -11.228191 -6.354595 1.807625 26.704504 0.950210 -1.551150 4.303930 -1.324380 -15.863119 4.381618 3.762509 -22.285923 -4.608675 93.631691 -21.022393 -23.346581 -4.098016 3.240292 -0.133590 0.452680 -0.425130 0.270540 -0.249510 17.697332 7.070833 -2.177593 8.845072 -8.661409 -92.406634 20.925287 -23.800550 2.213460 -2.239912 -0.180050 0.177540 0.070890 0.191900 
-1.945730 17.897970 -0.976760 -50.527667 -87.498576 52.079600 -15.002565 13.391592 3.095343 2.444822 -1.445138 -13.060845 -7.738285 4.959207 7.744970 -0.314417 3.628580 3.523579 0.075050 -0.007020 -0.159900 18.380201 -10.711450 2.833584 -3.814534 1.223666 -15.178320 9.293915 -4.898313 11.102500 0.137989 -3.457166 3.281269 0.055890 0.727550 0.139880 -3.692206 -1.808871 -7.091869 10.408364 -1.055438 6.205982 -4.822851 0.024930 10.503897 0.879911 -3.402071 -11.617550 -7.241818 1.919295 27.125131 1.155810 -1.737670 4.235580 -2.087565 -16.698300 4.540702 4.885814 -21.486139 -5.243925 94.892145 -19.190399 -22.094831 -4.090825 3.227394 -0.089680 0.428520 -0.416660 0.265090 0.442799 18.837690 7.565951 -3.108910 7.340394 -9.298165 -93.678744 19.923575 -23.305790 2.236243 -2.230524 -0.200660 0.187930 0.076940 0.176330 
-1.946110 17.892630 -0.966950 -58.293085 -87.623830 59.387600 -14.980673 13.455519 3.112011 2.571608 -1.279688 -12.196549 -7.742215 4.906524 6.981338 -0.322640 3.689153 3.515504 0.046730 -0.052970 -0.166790 18.403153 -10.645491 2.849688 -3.797869 0.938011 -13.602291 9.138990 -4.698078 9.484835 0.125783 -3.461330 3.290381 0.037170 0.736220 0.126790 -3.697191 -1.819079 -7.156905 10.990699 -1.203861 6.996050 -5.447847 0.114653 10.451720 0.944690 -3.676137 -11.883155 -7.804682 2.043486 27.296824 1.213490 -1.800710 4.249810 -3.020688 -17.457819 4.585678 6.287388 -20.731738 -5.795723 95.794147 -17.899054 -21.075273 -4.109070 3.204937 -0.062390 0.422150 -0.425990 0.248910 1.219388 19.761093 7.970311 -3.608916 6.091195 -9.824216 -95.198643 19.182550 -23.234502 2.246012 -2.219817 -0.229520 0.205920 0.102270 0.161390 
-1.959580 17.886740 -0.953060 -52.472160 -87.204214 53.135197 -14.976879 13.390837 3.094445 2.780789 -1.155884 -11.312768 -7.683612 4.823179 6.220190 -0.347972 3.752179 3.516713 0.027920 -0.101910 -0.156720 18.413658 -10.689522 2.870097 -3.699425 0.709694 -12.428211 9.023712 -4.627728 8.558366 0.117806 -3.527148 3.272818 0.031830 0.754560 0.116730 -3.778536 -1.857984 -7.176623 11.834067 -1.468417 7.363492 -6.054159 0.039892 10.652483 0.992725 -3.795310 -11.978437 -8.046114 1.855589 27.249215 0.985810 -2.020180 4.527690 -3.699080 -17.971517 4.568962 6.829844 -20.956752 -6.013066 96.450508 -17.090865 -20.587066 -4.136140 3.178472 -0.045790 0.430210 -0.449440 0.236390 1.756727 20.174991 8.211517 -3.520056 4.937972 -10.224704 -96.991301 18.658643 -23.560866 2.241361 -2.230300 -0.268410 0.226010 0.120650 0.140080 
-1.978110 17.875270 -0.941680 -45.486578 -86.732076 45.882888 -15.000779 13.325628 3.075908 2.953877 -1.090571 -10.854655 -7.688565 4.802439 5.911714 -0.384400 3.806657 3.520583 0.008150 -0.130260 -0.177160 18.394402 -10.768177 2.857265 -3.507911 0.620436 -12.045792 8.613277 -4.629101 8.792066 0.132496 -3.580789 3.266814 0.042710 0.794930 0.098610 -3.872919 -1.882702 -7.146381 12.412677 -1.637702 7.371777 -6.498422 -0.036516 10.867698 0.965430 -3.790378 -11.847396 -8.013712 1.645358 27.007626 0.879070 -2.326100 4.913850 -4.202785 -18.093796 4.416633 6.939286 -21.981244 -5.947537 96.954684 -16.677332 -20.421822 -4.165738 3.149086 -0.047130 0.454680 -0.487870 0.239100 2.262462 20.072857 8.237411 -3.133165 4.170339 -10.368010 -98.696465 18.483695 -24.177559 2.212882 -2.243742 -0.310680 0.258870 0.141040 0.132860 
-1.999900 17.863750 -0.936470 -40.932275 -86.524973 40.918822 -15.041888 13.308469 3.078249 3.156327 -1.017161 -10.323198 -7.894941 4.871571 5.897593 -0.374864 3.851644 3.506634 0.052380 -0.083640 -0.135200 18.348801 -10.866061 2.803561 -3.255029 0.674653 -12.347366 7.844088 -4.700144 10.510089 0.132775 -3.598065 3.245637 0.073890 0.778510 0.102290 -3.928530 -1.888801 -7.094290 12.425403 -1.706423 7.407320 -6.577380 -0.137723 11.217802 0.928661 -3.648906 -11.577714 -7.754024 1.486143 26.954101 0.639640 -2.259890 4.706590 -4.527931 -17.952059 4.213563 6.655651 -23.187699 -5.858742 97.403495 -16.417648 -20.421012 -4.156602 3.167308 -0.060080 0.453700 -0.482980 0.246480 2.616047 19.706988 8.077415 -2.551806 4.304411 -10.330073 -100.175913 18.450426 -24.986386 2.202966 -2.283412 -0.298780 0.248820 0.109420 0.129830 
-2.021700 17.841920 -0.931720 -41.486533 -86.559738 41.236731 -15.046865 13.334259 3.069454 3.437906 -1.013249 -10.275545 -8.188751 5.049882 6.514057 -0.382976 3.942532 3.471842 0.087760 -0.046980 -0.113200 18.341613 -10.919084 2.737368 -2.933462 0.886246 -13.189111 7.101238 -4.818148 12.923316 0.150272 -3.651334 3.205825 0.114010 0.786560 0.122380 -3.910409 -1.845748 -7.012027 12.194230 -1.644647 7.122756 -6.342077 -0.221881 11.665240 0.857838 -3.374820 -11.141203 -7.157492 1.537029 26.598075 0.138980 -1.840160 5.033530 -4.510731 -17.343804 3.947611 5.671379 -24.613355 -5.501667 98.185232 -16.206131 -20.699657 -4.177642 3.210861 -0.093560 0.482950 -0.499450 0.258240 2.711212 18.815916 7.697828 -1.627093 5.102905 -9.989027 -101.581654 18.801192 -26.231328 2.165787 -2.338944 -0.292910 0.230550 0.091950 0.128150 
-2.041590 17.818650 -0.931950 -41.793559 -86.791869 41.061305 -15.060882 13.393165 3.055075 3.634459 -0.997290 -10.236770 -8.413926 5.327110 7.809778 -0.398873 4.043436 3.420796 0.131210 0.004190 -0.100600 18.314828 -10.982455 2.687525 -2.802918 1.185427 -14.272304 6.496185 -5.051771 15.952042 0.140670 -3.763090 3.139531 0.151980 0.784190 0.144240 -3.881716 -1.857002 -6.945924 11.642997 -1.584365 7.219639 -5.926547 -0.321385 11.983666 0.748996 -3.176186 -10.703333 -6.823086 1.866457 26.767744 0.042320 -1.422660 4.831720 -4.608224 -16.682611 3.684588 4.783429 -25.742587 -5.124305 98.817012 -16.188659 -21.046329 -4.176739 3.249454 -0.098070 0.494380 -0.497070 0.274620 3.012352 17.982940 7.270564 -1.006807 6.197743 -9.608009 -102.925950 19.150742 -27.372886 2.125151 -2.371990 -0.282640 0.214800 0.077940 0.128030 
-2.060740 17.787970 -0.933370 -37.111990 -86.944665 35.533158 -15.132697 13.442514 3.039334 3.844618 -0.940065 -9.900271 -8.698569 5.681514 9.319579 -0.399669 4.158090 3.339825 0.202130 0.092850 -0.061440 18.225825 -11.068005 2.650355 -2.864286 1.646610 -15.779914 5.890770 -5.473104 20.392103 0.091560 -4.011922 3.000886 0.204150 0.735930 0.164310 -3.879755 -1.940755 -6.899059 10.773769 -1.573110 7.782606 -5.350899 -0.471565 12.407064 0.609160 -2.878354 -10.239149 -6.381239 2.150211 27.206479 0.263270 -1.095260 3.791480 -4.439998 -15.943543 3.364830 3.982783 -26.935576 -4.857670 99.334405 -16.097832 -21.377251 -4.150741 3.301165 -0.094880 0.475200 -0.465910 0.279370 3.121492 17.018440 6.802680 -0.320247 7.222401 -9.283269 -104.324637 19.495085 -28.655296 2.098940 -2.403025 -0.249570 0.184820 0.050620 0.123170 
-2.085350 17.757730 -0.931540 -24.095677 -86.576397 21.379906 -15.306436 13.488831 3.016378 3.976139 -0.803916 -9.008952 -8.769054 5.940253 10.336596 -0.383361 4.280006 3.281895 0.273290 0.170330 -0.008240 18.041102 -11.114165 2.637018 -3.396989 2.113091 -17.232248 5.871770 -6.236148 25.268241 -0.005333 -4.469646 2.790983 0.245020 0.700270 0.185470 -3.974153 -2.086009 -6.879820 9.942767 -1.911816 8.598833 -5.126253 -0.908454 12.902727 0.510949 -2.605212 -9.808505 -6.027796 2.412961 27.790551 0.518110 -0.844480 2.868340 -4.414643 -15.395379 3.101559 3.654634 -27.710795 -4.758382 99.683408 -16.307471 -21.880529 -4.127067 3.331589 -0.086110 0.456070 -0.432010 0.291200 3.290387 16.199273 6.323168 0.246199 8.455475 -9.010752 -105.470347 19.554078 -29.535996 2.085098 -2.429366 -0.220090 0.168140 0.015470 0.120890 
-2.115460 17.722570 -0.925650 -13.684050 -85.966143 9.837224 -15.446262 13.585628 2.978632 3.853611 -0.694796 -8.302998 -8.477437 6.160930 11.688073 -0.406373 4.414781 3.212183 0.336060 0.245250 0.033990 17.902751 -11.056691 2.638632 -4.285948 2.500734 -18.547966 6.347179 -7.225726 29.642836 -0.115820 -5.035774 2.545376 0.302270 0.674600 0.201380 -3.998842 -2.214076 -6.863554 9.029333 -2.263960 9.324518 -4.879381 -1.389983 13.341033 0.407021 -2.317465 -9.138147 -5.602161 2.625647 28.147830 0.490650 -0.562900 1.663490 -4.438750 -14.504634 2.633692 3.441883 -29.100376 -4.513935 99.802418 -16.323065 -22.039661 -4.126992 3.343178 -0.074880 0.449910 -0.409530 0.294190 3.520614 15.019478 5.592661 0.469158 10.079097 -8.554272 -106.342596 19.562538 -30.044815 2.053787 -2.445228 -0.209800 0.168230 -0.000350 0.109990 
-2.152480 17.679410 -0.919370 -5.935562 -85.574152 1.244092 -15.531150 13.686100 2.932314 3.544381 -0.670073 -8.042117 -8.124723 6.446863 13.593340 -0.415767 4.571167 3.146124 0.386480 0.311250 0.069880 17.827523 -10.946439 2.657231 -5.369580 2.807330 -19.846064 7.059583 -8.292156 33.313081 -0.219091 -5.617523 2.315215 0.358020 0.665940 0.202020 -3.939967 -2.350214 -6.851508 7.893668 -2.521225 9.769898 -4.392270 -1.828651 13.561268 0.219300 -2.211635 -8.475097 -5.437228 2.838472 28.177576 0.197930 -0.226860 1.037420 -4.311052 -13.299476 2.221367 2.765969 -30.293851 -4.104754 100.458892 -16.183860 -22.236077 -4.135497 3.347922 -0.082990 0.457540 -0.404070 0.303270 3.796000 13.761271 4.786243 0.561383 11.795929 -7.966877 -107.359185 19.435686 -30.363207 2.030610 -2.469334 -0.209790 0.179520 -0.022580 0.103780 
-2.193530 17.637660 -0.912730 0.337698 -85.181043 -5.958196 -15.575911 13.778910 2.887455 3.031968 -0.669741 -7.761040 -7.473103 6.684034 15.768715 -0.416401 4.732188 3.080006 0.410030 0.348290 0.095870 17.790040 -10.850853 2.681853 -6.656419 2.926723 -20.708285 7.982696 -9.471389 36.282752 -0.317452 -6.195381 2.100258 0.393960 0.658510 0.192320 -3.854496 -2.452559 -6.852566 6.790360 -2.746874 10.245027 -4.114247 -2.186081 13.757585 0.188162 -2.011317 -7.959858 -5.119325 2.929769 28.381682 -0.354200 0.205590 0.760300 -4.130223 -12.300103 1.881012 2.509999 -31.038068 -3.824779 100.906647 -16.232965 -22.435529 -4.148470 3.336697 -0.091380 0.467530 -0.405710 0.300520 3.728214 12.681569 4.140789 0.675127 13.419125 -7.403194 -107.820483 19.306891 -30.408381 2.018779 -2.478327 -0.218010 0.190960 -0.034420 0.093110 
